<?xml version="1.0" encoding="UTF-8"?><svg id="_イヤー_2" xmlns="http://www.w3.org/2000/svg" viewBox="0 0 151.96 148.24"><defs><style>.cls-1{fill:#04045b;}.cls-2{fill:#03035b;}.cls-3{fill:#02025b;}.cls-4{fill:#9696fb;}.cls-5{fill:#9797fb;}</style></defs><g id="_イヤー_1-2"><g><path class="cls-3" d="M76.22,148.23c-15.76,0-31.52,.03-47.28,0C11.35,148.18,.04,136.88,.02,119.28-.01,89.25,0,59.22,.02,29.19,.03,11.26,11.27,.03,29.21,.02c31.19-.03,62.38-.03,93.57,0,17.92,.02,29.15,11.26,29.16,29.2,.02,29.86,.02,59.73,0,89.59-.01,18.24-11.18,29.4-29.44,29.42-15.43,.02-30.86,0-46.29,0Zm5.26-44.03c-7.73-21.62-15.29-42.9-23.02-64.11-.36-.99-2.1-2.02-3.25-2.08-4.77-.23-9.56-.1-13.76-.1-7.71,22.35-15.26,44.23-22.96,66.57,4.16,0,7.65,.26,11.07-.13,1.38-.15,3.23-1.43,3.79-2.68,1.87-4.16,2.06-10.39,5.13-12.35,3.42-2.2,9.28-.62,14.07-.67,1.49-.02,3,.16,4.47-.04,2.95-.4,4.34,.77,5.33,3.63,4.48,12.99,4.58,12.95,19.13,11.95Zm48.72-21.27c0-4.36,.41-7.88-.08-11.26-1.18-8.03-4.98-14.29-13.1-17.15-13.61-4.79-27.29,2.19-31.46,16.08-4.74,15.79,2.36,30.96,16.42,34.27,4.1,.97,8.56,.86,12.83,.63,11.12-.59,12.21-2.03,11.12-13.17-.01-.13-.15-.26-.22-.38-17.83,3.6-25.52,1.13-26.31-9.02h30.81Z"/><path class="cls-4" d="M81.47,104.2c-14.55,1-14.64,1.03-19.13-11.95-.99-2.86-2.38-4.03-5.33-3.63-1.46,.2-2.98,.02-4.47,.04-4.8,.05-10.65-1.53-14.07,.67-3.06,1.97-3.26,8.19-5.13,12.35-.56,1.25-2.41,2.53-3.79,2.68-3.42,.38-6.92,.13-11.07,.13,7.71-22.34,15.25-44.22,22.96-66.57,4.2,0,8.99-.13,13.76,.1,1.14,.06,2.89,1.09,3.25,2.08,7.72,21.21,15.29,42.49,23.02,64.11Zm-24.47-28.57c-2.62-8.45-5.12-16.48-7.79-25.07-2.65,8.77-5.09,16.83-7.58,25.07h15.37Z"/><path class="cls-5" d="M130.19,82.93h-30.81c.79,10.15,8.48,12.62,26.31,9.02,.08,.13,.21,.25,.22,.38,1.09,11.14,0,12.58-11.12,13.17-4.26,.23-8.72,.34-12.83-.63-14.06-3.32-21.15-18.49-16.42-34.27,4.16-13.88,17.84-20.87,31.46-16.08,8.12,2.86,11.93,9.12,13.1,17.15,.5,3.38,.08,6.9,.08,11.26Zm-13.67-9.58c-.48-6.18-2.82-8.65-7.8-8.85-5.79-.23-8.69,2.41-9.63,8.85h17.43Z"/><path class="cls-1" d="M57,75.63h-15.37c2.49-8.24,4.93-16.3,7.58-25.07,2.67,8.58,5.16,16.62,7.79,25.07Z"/><path class="cls-2" d="M116.53,73.35h-17.43c.94-6.44,3.84-9.08,9.63-8.85,4.98,.2,7.32,2.67,7.8,8.85Z"/></g></g></svg>