<?xml version="1.0" encoding="UTF-8"?><svg id="_イヤー_2" xmlns="http://www.w3.org/2000/svg" viewBox="0 0 252.44 252.44"><defs><style>.cls-1{fill:#fefefe;}.cls-2{fill:#fefefd;}.cls-3{fill:#fe4e1d;}.cls-4{fill:#fe6520;}</style></defs><g id="_イヤー_1-2"><g><path class="cls-1" d="M252.44,252.44H0V0H252.44V252.44ZM29.04,15.39c0,.35-.02,.57,0,.78,.28,3.43,.55,6.87,.83,10.3,.4,4.96,.81,9.92,1.21,14.88,.47,5.75,.94,11.5,1.41,17.25,.35,4.25,.68,8.5,1.03,12.76,.42,5.07,.85,10.14,1.26,15.21,.41,4.99,.8,9.98,1.21,14.96,.47,5.78,.95,11.56,1.42,17.33,.4,4.93,.8,9.87,1.21,14.8,.47,5.75,.95,11.5,1.42,17.25,.41,4.96,.8,9.92,1.21,14.88,.47,5.78,.95,11.56,1.42,17.33,.4,4.91,.8,9.81,1.2,14.72,.42,5.15,.86,10.3,1.25,15.45,.05,.72,.3,1.01,.99,1.2,26.61,7.46,53.22,14.95,79.84,22.41,.56,.16,1.25,.15,1.81-.01,13.94-4.01,27.87-8.05,41.8-12.08,11.94-3.46,23.87-6.91,35.81-10.36,.51-.15,.74-.34,.78-.93,.13-2.05,.33-4.09,.51-6.13,.47-5.39,.95-10.79,1.42-16.18,.47-5.37,.92-10.73,1.39-16.1,.47-5.42,.94-10.84,1.41-16.26,.41-4.69,.81-9.37,1.21-14.06,.47-5.39,.94-10.79,1.41-16.18,.41-4.77,.82-9.54,1.23-14.3,.46-5.34,.93-10.68,1.4-16.02,.47-5.37,.93-10.73,1.39-16.1,.47-5.39,.94-10.79,1.4-16.18,.41-4.69,.81-9.37,1.21-14.06,.47-5.39,.94-10.79,1.41-16.18,.42-4.82,.84-9.64,1.26-14.47,.16-1.82,.3-3.63,.46-5.52-64.79-.13-129.49-.27-194.24-.4Z"/><path class="cls-3" d="M29.04,15.39c64.75,.13,129.44,.27,194.24,.4-.16,1.88-.3,3.7-.46,5.52-.42,4.82-.84,9.64-1.26,14.47-.47,5.39-.94,10.79-1.41,16.18-.41,4.69-.81,9.37-1.21,14.06-.47,5.39-.94,10.79-1.4,16.18-.46,5.37-.92,10.73-1.39,16.1-.46,5.34-.93,10.68-1.4,16.02-.41,4.77-.82,9.54-1.23,14.3-.47,5.39-.94,10.79-1.41,16.18-.41,4.69-.81,9.37-1.21,14.06-.47,5.42-.94,10.84-1.41,16.26-.46,5.37-.92,10.73-1.39,16.1-.47,5.39-.95,10.79-1.42,16.18-.18,2.04-.38,4.08-.51,6.13-.04,.59-.27,.78-.78,.93-11.94,3.44-23.88,6.9-35.81,10.36-13.93,4.03-27.86,8.07-41.8,12.08-.56,.16-1.25,.17-1.81,.01-26.61-7.46-53.22-14.94-79.84-22.41-.69-.19-.94-.48-.99-1.2-.39-5.15-.83-10.3-1.25-15.45-.4-4.91-.8-9.81-1.2-14.72-.47-5.78-.95-11.56-1.42-17.33-.41-4.96-.8-9.92-1.21-14.88-.47-5.75-.95-11.5-1.42-17.25-.4-4.93-.8-9.87-1.21-14.8-.47-5.78-.95-11.56-1.42-17.33-.41-4.99-.8-9.98-1.21-14.96-.42-5.07-.85-10.14-1.26-15.21-.35-4.25-.69-8.5-1.03-12.76-.47-5.75-.94-11.5-1.41-17.25-.41-4.96-.81-9.92-1.21-14.88-.28-3.43-.56-6.87-.83-10.3-.02-.22,0-.44,0-.78ZM126.78,55.92c-.35,.01-.71,.04-1.06,.04-20.2,0-40.41,0-60.61,0h-1.07l6.8,74.44h1.09c17.96,0,35.92,0,53.87,0,.33,0,.66,.02,.98,.03,0,12.85,0,25.69,0,38.54-.83,.31-1.63,.43-2.54,.17-8.62-2.53-17.25-5.03-25.88-7.51-.5-.14-.69-.36-.73-.88-.29-3.9-.6-7.79-.91-11.69-.17-2.17-.34-4.35-.51-6.54h-24.41c0,.16-.03,.27-.02,.37,.45,5.17,.89,10.35,1.34,15.52,.63,7.27,1.28,14.54,1.87,21.81,.06,.77,.31,1.05,1.02,1.25,15.81,4.39,31.62,8.79,47.42,13.23,1.13,.32,2.21,.55,3.34,.11v23.1c.24-.02,.37-.01,.5-.05,1.78-.51,3.56-1.03,5.34-1.55,4.11-1.19,8.21-2.39,12.32-3.58,4.06-1.17,8.11-2.34,12.17-3.51,4.24-1.23,8.48-2.46,12.72-3.69,3.66-1.06,7.32-2.13,10.99-3.2,3.79-1.1,7.59-2.19,11.38-3.31,.18-.05,.41-.3,.43-.48,.14-1.24,.25-2.49,.35-3.73,.12-1.49,.23-2.98,.36-4.47,.2-2.25,.43-4.49,.62-6.73,.13-1.52,.22-3.04,.36-4.56,.2-2.22,.43-4.43,.63-6.65,.14-1.54,.22-3.09,.35-4.64,.2-2.38,.43-4.76,.64-7.14,.12-1.41,.22-2.82,.35-4.23,.2-2.22,.43-4.43,.63-6.65,.14-1.54,.22-3.09,.35-4.64,.2-2.38,.43-4.76,.64-7.14,.12-1.41,.23-2.82,.35-4.23,.21-2.35,.43-4.71,.63-7.06,.13-1.44,.23-2.87,.36-4.31,.2-2.27,.43-4.54,.63-6.82,.13-1.49,.22-2.98,.35-4.47,.2-2.35,.43-4.71,.63-7.06,.13-1.49,.23-2.98,.36-4.47,.2-2.27,.43-4.54,.63-6.82,.13-1.49,.22-2.98,.35-4.47,.2-2.35,.43-4.71,.63-7.06,.13-1.44,.23-2.87,.36-4.31,.2-2.3,.43-4.6,.63-6.9,.13-1.46,.22-2.93,.35-4.39,.2-2.35,.43-4.71,.64-7.06,.13-1.44,.23-2.87,.36-4.31,.2-2.22,.43-4.43,.63-6.65,.14-1.54,.22-3.09,.35-4.64,.24-2.73,.51-5.45,.77-8.21-.18-.03-.31-.07-.44-.08-2.62-.06-5.24-.15-7.86-.16-16.34-.07-32.67-.12-49.01-.17-7.31-.02-14.62,0-21.93-.02-.75,0-.9,.24-.9,.94,.02,6.9,.01,13.8,.01,20.7Z"/><path class="cls-2" d="M126.79,130.42c-.33,0-.66-.03-.98-.03-17.96,0-35.92,0-53.87,0h-1.09l-6.8-74.44h1.07c20.2,0,40.41,0,60.61,0,.35,0,.71-.02,1.06-.04,.33,.01,.65,.04,.98,.04,19.43,0,38.85,0,58.28,0h1.11c-.76,8.17-1.51,16.21-2.27,24.32h-1.05c-18.69,0-37.38,0-56.07,0-.33,0-.65,.02-.98,.03-.16-.01-.33-.03-.49-.03-11.57,0-23.14,0-34.71,0-.21,0-.42,.04-.68,.06,.84,8.48,1.68,16.89,2.52,25.33h.71c10.67,0,21.34,0,32.01,0,.22,0,.43-.03,.65-.04,.33,.01,.65,.04,.98,.04,17.93,0,35.86,0,53.79,0h1.04c-.02,.31-.02,.55-.04,.79-.47,5.23-.94,10.46-1.41,15.69-.4,4.49-.81,8.99-1.21,13.48-.47,5.23-.95,10.46-1.42,15.69-.4,4.47-.8,8.93-1.21,13.4-.47,5.17-.96,10.35-1.39,15.52-.06,.72-.28,1.03-.97,1.22-12.17,3.35-24.33,6.71-36.49,10.08-3.89,1.08-7.78,2.18-11.67,3.28-1.13,.44-2.21,.21-3.34-.11-15.8-4.43-31.61-8.84-47.42-13.23-.71-.2-.96-.48-1.02-1.25-.59-7.27-1.24-14.54-1.87-21.81-.45-5.17-.9-10.35-1.34-15.52,0-.11,0-.22,.02-.37h24.41c.17,2.19,.34,4.37,.51,6.54,.31,3.9,.62,7.79,.91,11.69,.04,.52,.23,.73,.73,.88,8.63,2.48,17.26,4.98,25.88,7.51,.91,.27,1.71,.14,2.54-.17,.05,0,.11,0,.16-.01,8.28-2.23,16.56-4.47,24.84-6.68,.52-.14,.69-.4,.74-.89,.33-3.32,.68-6.64,1.03-9.95,.52-5,1.06-10.01,1.58-15.01,.21-1.98,.4-3.96,.61-6.02h-.97c-6.1,0-12.21,0-18.31,0-3.23,0-6.46,.02-9.69,.03Z"/><path class="cls-4" d="M126.79,80.31c.33-.01,.65-.03,.98-.03,18.69,0,37.38,0,56.07,0h1.05c.76-8.11,1.51-16.15,2.27-24.32h-1.11c-19.43,0-38.85,0-58.28,0-.33,0-.65-.02-.98-.04,0-6.9,.01-13.8-.01-20.7,0-.69,.14-.94,.9-.94,7.31,.03,14.62,0,21.93,.02,16.34,.04,32.67,.1,49.01,.17,2.62,.01,5.24,.1,7.86,.16,.13,0,.26,.04,.44,.08-.26,2.76-.52,5.48-.77,8.21-.14,1.54-.22,3.09-.35,4.64-.2,2.22-.43,4.43-.63,6.65-.13,1.44-.23,2.87-.36,4.31-.21,2.35-.43,4.71-.64,7.06-.13,1.46-.22,2.93-.35,4.39-.2,2.3-.42,4.6-.63,6.9-.13,1.44-.23,2.87-.36,4.31-.21,2.35-.43,4.71-.63,7.06-.13,1.49-.22,2.98-.35,4.47-.2,2.27-.43,4.54-.63,6.82-.13,1.49-.23,2.98-.36,4.47-.2,2.35-.43,4.71-.63,7.06-.13,1.49-.22,2.98-.35,4.47-.2,2.27-.42,4.54-.63,6.82-.13,1.44-.23,2.87-.36,4.31-.21,2.35-.43,4.71-.63,7.06-.12,1.41-.23,2.82-.35,4.23-.21,2.38-.44,4.76-.64,7.14-.13,1.54-.21,3.09-.35,4.64-.2,2.22-.43,4.43-.63,6.65-.13,1.41-.23,2.82-.35,4.23-.21,2.38-.44,4.76-.64,7.14-.13,1.54-.22,3.09-.35,4.64-.2,2.22-.43,4.43-.63,6.65-.14,1.52-.22,3.04-.36,4.56-.2,2.25-.42,4.49-.62,6.73-.13,1.49-.24,2.98-.36,4.47-.1,1.25-.2,2.49-.35,3.73-.02,.18-.25,.43-.43,.48-3.79,1.12-7.59,2.21-11.38,3.31-3.66,1.06-7.32,2.13-10.99,3.2-4.24,1.23-8.48,2.46-12.72,3.69-4.06,1.17-8.12,2.34-12.17,3.51-4.11,1.19-8.21,2.38-12.32,3.58-1.78,.52-3.56,1.03-5.34,1.55-.12,.04-.26,.03-.5,.05v-23.1c3.89-1.09,7.78-2.2,11.67-3.28,12.16-3.37,24.32-6.74,36.49-10.08,.7-.19,.91-.5,.97-1.22,.43-5.18,.92-10.35,1.39-15.52,.4-4.47,.8-8.93,1.21-13.4,.47-5.23,.95-10.46,1.42-15.69,.41-4.49,.81-8.99,1.21-13.48,.47-5.23,.94-10.46,1.41-15.69,.02-.24,.02-.47,.04-.79h-1.04c-17.93,0-35.86,0-53.79,0-.33,0-.65-.03-.98-.04,0-8.44,0-16.87,0-25.31Z"/><path class="cls-4" d="M126.79,130.42c3.23,0,6.46-.02,9.69-.03,6.1,0,12.21,0,18.31,0h.97c-.21,2.06-.41,4.04-.61,6.02-.52,5-1.06,10.01-1.58,15.01-.35,3.32-.69,6.63-1.03,9.95-.05,.48-.22,.75-.74,.89-8.29,2.21-16.56,4.45-24.84,6.68-.05,.01-.11,0-.16,.01,0-12.85,0-25.69,0-38.54Z"/><path class="cls-3" d="M126.79,80.31c0,8.44,0,16.87,0,25.31-.22,.01-.43,.04-.65,.04-10.67,0-21.34,0-32.01,0h-.71c-.84-8.44-1.68-16.85-2.52-25.33,.26-.02,.47-.06,.68-.06,11.57,0,23.14,0,34.71,0,.16,0,.33,.02,.49,.03Z"/></g></g></svg>