<?xml version="1.0" encoding="UTF-8"?><svg id="_イヤー_2" xmlns="http://www.w3.org/2000/svg" viewBox="0 0 261.11 293.55"><defs><style>.cls-1{fill:#ebeae7;}.cls-2{fill:#eceffa;}.cls-3{fill:#fed73b;}.cls-4{fill:#fed325;}.cls-5{fill:#d9b92e;}</style></defs><g id="_イヤー_1-2"><g><path class="cls-5" d="M0,0H261.11c-.97,11.6-1.87,22.95-2.89,34.3-2.51,28.11-5.09,56.22-7.63,84.33-3.23,35.71-6.45,71.43-9.67,107.14-1.03,11.41-2.13,22.81-2.97,34.24-.23,3.11-1.26,4.59-4.39,5.45-33.17,9.14-66.29,18.47-99.46,27.63-2.1,.58-4.65,.63-6.74,.05-33.16-9.19-66.27-18.55-99.42-27.74-2.91-.81-3.88-2.1-4.13-5.09-3.88-44.66-7.89-89.31-11.91-133.95C8.36,87.17,4.78,47.98,1.19,8.8,.93,6.01,.44,3.24,0,0ZM120.12,58.49l-1.57-1.28c-7.18-.07-14.36-.14-21.54-.21-.65,1.95-1.86,3.9-1.86,5.85-.12,43.11-.1,86.22-.11,129.33-16.57-4.45-33.13-8.9-50.31-13.51,0,9.4,.14,17.85-.07,26.29-.08,3.08,1.02,4.37,3.91,5.14,14.77,3.95,29.5,8.07,44.23,12.15,9.08,2.51,18.14,5.06,27.51,7.68,.11-1.76,.25-2.9,.25-4.04,.01-54.49,.01-108.99-.01-163.48,0-1.3-.28-2.61-.42-3.91ZM237.53,22.68h-5.66c-31.44,0-62.88,0-94.31,0q-6.74,0-6.75,6.51c0,79.4,0,158.81,.01,238.21,0,1.72,.19,3.44,.31,5.44,1.3-.21,1.94-.25,2.55-.41,14.85-4.05,29.7-8.11,44.55-12.19,11.81-3.24,23.66-6.4,35.4-9.89,1.6-.47,3.65-2.53,3.85-4.07,1.29-10.14,2.18-20.34,3.1-30.53,2.03-22.35,4.01-44.71,6.01-67.07,1.66-18.58,3.34-37.15,4.99-55.73,1.68-18.91,3.34-37.81,4.98-56.72,.37-4.24,.62-8.5,.98-13.55Z"/><path class="cls-3" d="M237.53,22.68c-.36,5.05-.61,9.3-.98,13.55-1.64,18.91-3.31,37.82-4.98,56.72-1.65,18.58-3.32,37.15-4.99,55.73-2,22.36-3.98,44.72-6.01,67.07-.93,10.19-1.81,20.38-3.1,30.53-.2,1.54-2.25,3.6-3.85,4.07-11.74,3.49-23.58,6.65-35.4,9.89-14.85,4.08-29.7,8.14-44.55,12.19-.61,.17-1.26,.21-2.55,.41-.12-1.99-.31-3.71-.31-5.44-.01-79.4-.01-158.81-.01-238.21q0-6.5,6.75-6.51c31.44,0,62.88,0,94.31,0h5.66Zm-96.58,179.31c-.39,1.03-1.12,2.05-1.13,3.09-.1,6.97-.1,13.95,0,20.93,.02,1,.79,1.99,1.22,2.99,1.79-.15,3.65-.05,5.37-.49,19.46-5.03,38.83-10.47,58.4-15.03,5.98-1.39,7.45-4.14,7.79-9.6,1.03-16.56,2.54-33.09,3.81-49.63,.68-8.85,1.27-17.71,1.93-27.06-17.47,2.11-34.33,4.14-51.27,6.18v-46.18h54.65c.89-10.22,1.75-20.07,2.63-30.14-1.28-.16-2.24-.39-3.19-.39-25.61-.02-51.22-.03-76.83,.01-1.11,0-2.22,.46-3.32,.71-.41,1.68-1.17,3.36-1.18,5.05-.07,32.95-.07,65.89,0,98.84,0,1.69,.74,3.38,1.13,5.06,0,.6,.01,1.19,.02,1.79l.28,1c16.98-2.93,33.96-5.86,51.77-8.93-.38,7.44-.97,14.5-1.01,21.55-.02,3.56-1.45,4.78-4.7,5.6-14.16,3.57-28.27,7.34-42.34,11.25-1.54,.43-2.69,2.23-4.02,3.39Z"/><path class="cls-1" d="M97.01,57c7.18,.07,14.36,.14,21.54,.21,.52,.43,1.05,.85,1.57,1.27,.15,1.3,.42,2.61,.42,3.91,.02,54.49,.02,108.99,.01,163.48,0,1.14-.14,2.28-.25,4.04-9.37-2.62-18.43-5.16-27.51-7.68-14.74-4.08-29.46-8.2-44.23-12.15-2.89-.77-3.99-2.06-3.91-5.14,.21-8.44,.07-16.9,.07-26.29,17.18,4.61,33.74,9.06,50.31,13.51,.6-1.51,1.69-3.01,1.72-4.53,.17-8.44,.07-16.89,.08-25.34,.05-35.11,.11-70.21,.17-105.32Z"/><path class="cls-2" d="M97.01,57c-.06,35.11-.12,70.21-.17,105.32-.01,8.45,.09,16.89-.08,25.34-.03,1.52-1.12,3.02-1.72,4.53,.01-43.11,0-86.22,.11-129.33,0-1.95,1.21-3.9,1.86-5.85Z"/><path class="cls-2" d="M120.12,58.49c-.52-.42-1.04-.85-1.57-1.27,.52,.42,1.04,.85,1.57,1.27Z"/><path class="cls-4" d="M140.99,57.4c-.02,36.32-.03,72.63-.05,108.95-.39-1.69-1.13-3.37-1.13-5.06-.07-32.95-.07-65.89,0-98.84,0-1.68,.77-3.37,1.18-5.05Z"/><path class="cls-4" d="M140.95,202c.03,9,.06,18,.09,27-.42-.99-1.2-1.98-1.22-2.99-.11-6.97-.1-13.95,0-20.93,.02-1.03,.74-2.06,1.13-3.09Z"/><path class="cls-4" d="M140.97,168.13c.09,.33,.18,.67,.28,1-.09-.33-.18-.67-.28-1Z"/></g></g></svg>