<?xml version="1.0" encoding="UTF-8"?><svg id="_イヤー_2" xmlns="http://www.w3.org/2000/svg" viewBox="0 0 303.5 224.69"><defs><style>.cls-1{fill:#3e3a39;}</style></defs><g id="_イヤー_1-2"><path class="cls-1" d="M151.48,224.69c-42.49,0-84.97,0-127.46,0C8.04,224.68,0,216.69,0,200.82,0,141.84,0,82.86,0,23.88,.01,7.98,8.03,0,24.02,0c85.14-.01,170.28-.01,255.42,0,15.96,0,24.05,8.01,24.05,23.87,.02,58.81,.02,117.63,0,176.44,0,16.53-7.91,24.37-24.55,24.37-42.49,0-84.97,0-127.46,0ZM16.91,16.36l-.22,1.62c1.48,1.29,2.92,2.62,4.43,3.87,37.61,31.06,75.2,62.15,112.85,93.16,11.66,9.61,23.76,9.65,35.34,.12,37.78-31.12,75.5-62.31,113.24-93.48,1.48-1.22,2.88-2.53,5.61-4.95-3.83-.63-6.12-1.33-8.41-1.33-85.45-.06-170.91-.06-256.36,0-2.16,0-4.32,.65-6.49,.99Zm13.42,192.7h242.31c-1.73-1.48-2.77-2.49-3.92-3.35-31.62-23.6-63.21-47.22-94.96-70.63-1.53-1.13-4.69-1.17-6.63-.46-10.31,3.79-20.53,4.03-30.66-.17-3.04-1.26-5.08-.94-7.66,1-25.15,18.91-50.4,37.69-75.62,56.51-7.29,5.44-14.57,10.9-22.87,17.11ZM15.75,37.32V200.65c34.92-26.02,69.13-51.5,103.95-77.45C84.99,94.53,50.78,66.27,15.75,37.32ZM287.68,200.64V37.33c-34.94,28.87-69.2,57.18-103.92,85.88,34.84,25.96,69.03,51.43,103.92,77.43Z"/></g></svg>