<?xml version="1.0" encoding="UTF-8"?><svg id="_イヤー_2" xmlns="http://www.w3.org/2000/svg" viewBox="0 0 198.85 195.3"><defs><style>.cls-1{fill:#727171;}</style></defs><g id="_イヤー_1-2"><path class="cls-1" d="M97.67,195.29c-4.95,0-9.65,0-14.35,0-18.36,0-36.71,.03-55.07,0-14.25-.03-25.6-9.54-27.96-23.52-.4-2.4-.27-4.9-.27-7.35C0,118.83,0,73.25,.02,27.67,.03,12.26,12.06,.1,27.51,.07,64.49,0,101.48,.04,138.46,.05c11.67,0,23.34-.2,35,.17,12.42,.39,23.63,11.02,24.96,23.34,.48,4.46,.41,8.98,.41,13.48,.02,43.47,.02,86.94,0,130.4,0,14.26-10.4,25.92-24.63,27.49-3.51,.39-7.08,.33-10.62,.34-10.78,.04-21.56,.01-32.34,.01-.88,0-1.76,0-2.88,0-.04-.83-.11-1.55-.11-2.27,.02-20.74,.07-41.49,.02-62.23,0-2.02,.5-2.74,2.62-2.7,6.55,.13,13.1,.07,19.65,.04,4.25-.02,5.5-1.29,5.97-5.52,.7-6.23,1.46-12.45,2.29-18.66,.56-4.19-1.02-6.23-5.31-6.27-7.5-.07-15.01-.02-22.52-.03-2.74,0-2.74,0-2.74-2.83,0-5.05-.04-10.1,.02-15.15,.02-1.7,.15-3.41,.45-5.08,.94-5.19,4.86-8.23,11-8.43,4.23-.14,8.46-.06,12.69-.08,4.04-.02,5.67-1.67,5.68-5.75,0-5.32,.02-10.65,0-15.97-.01-3.69-1.71-5.46-5.35-5.43-7.57,.07-15.15,0-22.7,.39-16.42,.87-29.57,12.9-31.38,29.2-.91,8.24-.6,16.61-.83,24.92-.02,.75-.07,1.51,0,2.25,.16,1.56-.59,2-2.04,1.98-4.57-.06-9.14-.04-13.72-.01-4.99,.03-6.3,1.38-6.25,6.36,.06,6.41,.1,12.83,.17,19.24,.03,3.13,1.45,4.74,4.56,4.81,5.05,.12,10.1,.11,15.15,.05,1.69-.02,2.41,.36,2.4,2.26-.14,20.95-.19,41.9-.28,62.85,0,.6-.08,1.2-.15,2.07Z"/></g></svg>