<?xml version="1.0" encoding="UTF-8"?><svg id="_イヤー_2" xmlns="http://www.w3.org/2000/svg" viewBox="0 0 144.18 144.12"><defs><style>.cls-1{fill:#595757;}</style></defs><g id="_イヤー_1-2"><g><path class="cls-1" d="M72.3,.02c11.33,0,22.66-.06,33.99,.01,21.44,.15,37.71,16.42,37.81,37.93,.1,22.67,.1,45.34,0,68.01-.1,21.54-16.19,37.82-37.74,38-22.66,.19-45.32,.19-67.98,.02C16,143.82,.07,127.57,.03,105.13c-.04-22.06-.04-44.11,0-66.17C.08,16.32,16.25,.08,38.76,.03c11.18-.03,22.36,0,33.53,0ZM12.52,71.69c0,11.64-.12,23.28,.03,34.91,.18,14.16,10.96,24.98,25.14,25.06,22.96,.14,45.92,.13,68.88,0,13.61-.08,24.66-10.09,24.96-23.74,.52-23.87,.52-47.78,.02-71.65-.29-13.88-11.39-23.88-25.26-23.95-22.65-.11-45.31-.1-67.97-.01-14.99,.06-25.69,10.84-25.8,25.84-.08,11.18-.02,22.36,0,33.53Z"/><path class="cls-1" d="M72.27,108.96c-20.48,.06-37.14-16.58-37.09-37.04,.05-20.24,16.56-36.77,36.84-36.86,20.54-.1,37.24,16.41,37.28,36.83,.03,20.53-16.43,37.02-37.02,37.07Zm-24.62-37.4c-.21,13.57,10.5,24.83,23.91,25.13,13.73,.31,24.97-10.44,25.3-24.22,.33-13.56-10.79-25.04-24.39-25.17-13.43-.13-24.61,10.8-24.82,24.26Z"/><path class="cls-1" d="M118.57,26.73c-.06,4.73-3.71,8.33-8.44,8.32-4.69,0-8.39-3.66-8.43-8.35-.05-4.9,3.77-8.64,8.69-8.53,4.71,.11,8.24,3.8,8.18,8.55Z"/></g></g></svg>