<?xml version="1.0" encoding="UTF-8"?><svg id="_イヤー_2" xmlns="http://www.w3.org/2000/svg" viewBox="0 0 86.3 84.39"><defs><style>.cls-1{fill:#012039;}.cls-2{fill:#011e36;}.cls-3{fill:#000429;}.cls-4{fill:#000529;}.cls-5{fill:#30a6fb;}.cls-6{fill:#30a5fa;}</style></defs><g id="_イヤー_1-2"><g><path class="cls-2" d="M.15,13.14C1.27,5.61,7.35,.1,14.99,.06c18.78-.09,37.56-.09,56.34,0,7.64,.04,13.71,5.54,14.83,13.07-.13,.77-.36,1.53-.36,2.3-.02,17.84-.02,35.68,0,53.53,0,.77,.23,1.53,.36,2.3-1.1,7.49-7.17,13.02-14.84,13.06-18.77,.1-37.55,.1-56.32,0-7.65-.04-13.66-5.51-14.84-13.07,.12-.69,.35-1.39,.35-2.08,.02-17.98,.02-35.96,0-53.94,0-.7-.23-1.39-.35-2.08Zm19.34,8.73V59.47h7.73v-11.47c3.12-.29,5.97-.38,8.75-.86,6.75-1.16,10.78-6.12,10.66-12.85-.11-6.57-4.27-11.65-10.96-12.31-5.31-.52-10.72-.11-16.18-.11Zm50.51,16.59c0-1.85-.08-3.52,.02-5.18,.08-1.28-.51-1.89-1.64-2.15-3.66-.87-7.36-1.15-11-.16-3.27,.89-5.71,2.87-6.57,6.34-1.06,4.31,.69,7.63,5.35,10.02,1.87,.96,3.91,1.6,5.75,2.6,.7,.38,1.65,1.59,1.47,2.04-.28,.74-1.37,1.64-2.13,1.66-2.15,.04-4.33-.21-6.46-.6-1.44-.26-2.8-.94-4.38-1.5,0,2.14-.09,4.04,.05,5.91,.04,.56,.59,1.4,1.09,1.58,5.1,1.75,10.27,2.21,15.27-.21,2.96-1.43,4.5-4.01,4.58-7.39,.08-3.34-1.45-5.73-4.31-7.25-1.85-.99-3.86-1.68-5.72-2.66-1.37-.72-3.79-.99-3.05-3.23,.62-1.9,2.77-1.57,4.39-1.33,2.34,.35,4.64,.95,7.3,1.52Z"/><path class="cls-4" d="M.15,13.14c.12,.69,.35,1.39,.35,2.08,.02,17.98,.02,35.96,0,53.94,0,.69-.23,1.39-.35,2.08-.05-.72-.15-1.45-.15-2.17,0-17.92,0-35.84,0-53.76,0-.72,.1-1.45,.15-2.17Z"/><path class="cls-3" d="M86.15,71.26c-.12-.77-.36-1.53-.36-2.3-.02-17.84-.02-35.68,0-53.53,0-.77,.24-1.53,.36-2.3,.05,.65,.14,1.3,.14,1.96,0,18,0,35.99,0,53.99,0,.72-.09,1.45-.14,2.17Z"/><path class="cls-5" d="M19.49,21.87c5.45,0,10.86-.42,16.18,.11,6.69,.66,10.86,5.74,10.96,12.31,.11,6.73-3.91,11.68-10.66,12.85-2.78,.48-5.63,.57-8.75,.86v11.47h-7.73V21.87Zm7.83,19.08c2.55-.27,5.02-.29,7.37-.84,2.79-.65,4.04-2.73,4-5.73-.03-2.71-1.29-4.65-4-5.26-2.35-.53-4.81-.53-7.37-.79v12.61Z"/><path class="cls-6" d="M70,38.47c-2.65-.56-4.96-1.16-7.3-1.52-1.62-.25-3.77-.57-4.39,1.33-.73,2.24,1.68,2.51,3.05,3.23,1.86,.98,3.87,1.67,5.72,2.66,2.86,1.52,4.39,3.91,4.31,7.25-.08,3.38-1.62,5.95-4.58,7.39-5,2.42-10.17,1.97-15.27,.21-.5-.17-1.05-1.01-1.09-1.58-.14-1.88-.05-3.77-.05-5.91,1.58,.56,2.95,1.24,4.38,1.5,2.12,.39,4.31,.64,6.46,.6,.76-.01,1.85-.91,2.13-1.66,.17-.45-.77-1.65-1.47-2.04-1.84-1-3.88-1.64-5.75-2.6-4.66-2.39-6.41-5.71-5.35-10.02,.85-3.47,3.29-5.45,6.57-6.34,3.65-.99,7.35-.71,11,.16,1.13,.27,1.72,.87,1.64,2.15-.1,1.66-.02,3.33-.02,5.18Z"/><path class="cls-1" d="M27.33,40.95v-12.61c2.56,.25,5.03,.26,7.37,.79,2.71,.61,3.96,2.55,4,5.26,.04,3-1.21,5.07-4,5.73-2.35,.55-4.82,.57-7.37,.84Z"/></g></g></svg>