<?xml version="1.0" encoding="UTF-8"?><svg id="_イヤー_2" xmlns="http://www.w3.org/2000/svg" viewBox="0 0 167.15 163.03"><defs><style>.cls-1{fill:#051e38;}.cls-2{fill:#32a6fc;}.cls-3{fill:#30a6f9;}.cls-4{fill:#3893db;}</style></defs><g id="_イヤー_1-2"><g><path class="cls-1" d="M83.46,.06c18.52,0,37.04-.16,55.56,.05,13.42,.15,25.36,10.72,27.62,23.97,.35,2.06,.49,4.18,.49,6.27,.03,34.26,.02,68.51,.02,102.77,0,16.84-13.04,29.84-29.91,29.84-35.62,0-71.24-.14-106.85,.07-14.58,.08-27.92-10.13-30.14-25.76-.2-1.4-.21-2.84-.21-4.26C.02,99,.05,64.99,0,30.98-.02,19.01,4.87,9.86,15.21,3.75,19.21,1.39,23.6,.08,28.27,.07c18.4-.05,36.79-.02,55.19-.02h0Zm39.72,59.89l-.77,.35c-2.83,1.74-5.66,3.48-8.61,5.29l-.35-1.15-.15-1.11c-.17-3-.75-3.92-2.78-3.97-3.65-.08-7.3-.02-10.95-.03-1.11,0-1.52,.47-1.42,1.61,.24,2.64,.38,5.29,.56,7.94l.05,1.84c-.03,.18-.09,.37-.09,.55,0,14.05,.02,28.11,0,42.16,0,1.53,.78,1.9,2.1,1.9,3.71-.02,7.43,0,11.14,0,2.45,0,2.59-.16,2.59-2.65,0-10.77,.03-21.55-.03-32.32,0-1.43,.48-2.39,1.68-3.01,1.7-.87,3.43-1.68,5.14-2.52l1.13-.33c2.88-.24,5.76-.51,8.64-.72,.96-.07,1.45-.4,1.44-1.46-.04-4.2,.02-8.4-.08-12.6-.01-.49-.88-1.43-1.22-1.37-2.7,.43-5.37,1.04-8.04,1.6Zm-80.68,18.42h-.01c0,11.46,0,22.91,0,34.37,0,2.44,.08,2.54,2.47,2.54,8.17,0,16.35,0,24.52,0,5.82,0,11.64-.02,17.46-.03,.96,0,1.83,0,2.04-1.32,.56-3.66,1.19-7.32,1.85-10.97,.27-1.52-.41-1.98-1.8-1.97-9.54,.02-19.07-.01-28.61,.03-2.4,.01-2.38,.12-2.38-2.24,0-18.33-.02-36.66,.03-54.99,0-1.65-.54-2.15-2.14-2.11-3.78,.1-7.56,.1-11.33,.01-1.59-.03-2.15,.44-2.14,2.11,.07,11.52,.04,23.04,.04,34.56Z"/><path class="cls-3" d="M42.5,78.36c0-11.52,.03-23.04-.04-34.56,0-1.67,.55-2.14,2.14-2.11,3.78,.08,7.56,.08,11.33-.01,1.6-.04,2.15,.45,2.14,2.11-.05,18.33-.03,36.66-.03,54.99,0,2.36-.02,2.25,2.38,2.24,9.54-.05,19.07-.01,28.61-.03,1.39,0,2.07,.45,1.8,1.97-.66,3.65-1.28,7.31-1.85,10.97-.2,1.32-1.07,1.31-2.04,1.32-5.82,0-11.64,.02-17.46,.03-8.17,0-16.35,0-24.52,0-2.39,0-2.47-.1-2.47-2.54,0-11.46,0-22.91,0-34.37h.01Z"/><path class="cls-2" d="M113.3,63.32l.15,1.11c0,.78,0,1.56,0,2.83,1.9-1.36,3.35-2.42,4.82-3.44,1.05-.73,2.12-1.44,3.22-2.1,.57-.34,1.63-.29,.91-1.43l.77-.35c1.93-.33,3.86-.64,5.78-1,1.9-.36,2.73,.21,2.76,2.13,.06,3.4-.02,6.8,.03,10.19,.02,1.29-.52,1.72-1.77,1.74-1.96,.03-3.93,.15-5.88,.4-.59,.08-1.11,.71-1.66,1.08l-1.13,.33c-1.04,.17-2.23,.07-3.11,.55-3.11,1.7-4.38,1.75-4.34,6.01,.07,10.28,0,20.55,.05,30.83,0,1.74-.61,2.48-2.39,2.43-2.85-.08-5.7-.08-8.54,0-2.66,.07-3.69-.21-3.64-3.55,.22-12.8,.29-25.6,.39-38.39,0-.74,.5-1.87-.96-1.96-.02-.61-.03-1.23-.05-1.84,.1-.59,.27-1.18,.28-1.78,.04-1.92,.03-3.84,0-5.75-.01-.87,.18-1.4,1.21-1.39,3.16,.04,6.31-.01,9.47,.03,1.38,.02,2.44,.51,2.69,2.12,.07,.44,.61,.81,.93,1.22Z"/><path class="cls-4" d="M98.77,70.71c1.46,.09,.97,1.22,.96,1.96-.09,12.8-.16,25.6-.39,38.39-.06,3.34,.98,3.62,3.64,3.55,2.85-.07,5.7-.08,8.54,0,1.78,.05,2.4-.69,2.39-2.43-.05-10.28,.02-20.55-.05-30.83-.03-4.26,1.23-4.31,4.34-6.01,.87-.48,2.06-.38,3.11-.55-1.72,.84-3.45,1.65-5.15,2.52-1.21,.62-1.69,1.58-1.68,3.01,.06,10.77,.03,21.55,.03,32.32,0,2.5-.14,2.65-2.59,2.65-3.71,0-7.43-.01-11.14,0-1.31,0-2.1-.37-2.1-1.9,.02-14.05,0-28.11,0-42.16,0-.18,.06-.37,.09-.55Z"/><path class="cls-4" d="M122.45,74.48c.55-.38,1.07-1.01,1.66-1.08,1.95-.25,3.92-.37,5.88-.4,1.25-.02,1.79-.44,1.77-1.74-.05-3.4,.02-6.8-.03-10.19-.03-1.92-.86-2.48-2.76-2.13-1.92,.36-3.85,.67-5.78,1,2.68-.56,5.34-1.18,8.04-1.6,.35-.05,1.21,.88,1.22,1.37,.1,4.2,.04,8.4,.08,12.6,.01,1.06-.47,1.39-1.44,1.46-2.88,.21-5.76,.47-8.64,.72Z"/><path class="cls-4" d="M113.3,63.32c-.32-.4-.86-.77-.93-1.22-.24-1.61-1.31-2.1-2.69-2.12-3.15-.04-6.31,0-9.47-.03-1.04-.01-1.23,.52-1.21,1.39,.03,1.92,.03,3.84,0,5.75-.01,.59-.18,1.19-.28,1.78-.18-2.65-.32-5.3-.56-7.94-.1-1.14,.3-1.62,1.42-1.61,3.65,.01,7.3-.05,10.95,.03,2.04,.04,2.61,.97,2.78,3.97Z"/><path class="cls-4" d="M122.41,60.29c.72,1.14-.34,1.08-.91,1.43-1.1,.66-2.17,1.37-3.22,2.1-1.48,1.02-2.93,2.09-4.82,3.44,0-1.27,0-2.05,0-2.83l.35,1.15c2.94-1.81,5.77-3.55,8.61-5.29Z"/></g></g></svg>